<svg xmlns="http://www.w3.org/2000/svg" viewBox="0 0 64 64" role="img" aria-labelledby="title desc">
  <title id="title">LingoFill icon</title>
  <desc id="desc">A speech bubble with a fill-in-the-blank line.</desc>
  <rect width="64" height="64" rx="14" fill="#2563eb"/>
  <path d="M14 16h36a6 6 0 0 1 6 6v19a6 6 0 0 1-6 6H32l-10 8v-8h-8a6 6 0 0 1-6-6V22a6 6 0 0 1 6-6Z" fill="#fff"/>
  <rect x="16" y="25" width="12" height="4" rx="2" fill="#2563eb"/>
  <rect x="32" y="25" width="16" height="4" rx="2" fill="#93c5fd"/>
  <rect x="16" y="34" width="10" height="4" rx="2" fill="#93c5fd"/>
  <rect x="30" y="34" width="18" height="4" rx="2" fill="#2563eb"/>
</svg>
